<svg width="0" height="0" class="hidden">
<symbol viewBox="0 0 12 13" fill="none" xmlns="http://www.w3.org/2000/svg" id="viber">
<g clip-path="url(#clip0_1_15970)">
<path d="M6.40796 7.27975C6.27072 7.41708 6.04815 7.41708 5.91082 7.27975L4.31323 5.68216C4.24731 5.61624 4.21023 5.52679 4.21023 5.43359C4.21023 5.3403 4.24731 5.25095 4.31323 5.18494L4.59723 4.90103L3.76309 4.06689L3.07974 4.75024C2.84976 4.98022 2.84985 5.3544 3.07974 5.58438L6.0086 8.51343C6.11929 8.62411 6.26742 8.685 6.42572 8.685C6.58401 8.685 6.73214 8.62402 6.84283 8.51334L7.52618 7.83008L6.69204 6.99585L6.40796 7.27975Z" fill="#5D6C7B"/>
<path d="M11.4957 4.73541C11.4957 3.60831 11.0541 2.54593 10.2519 1.74384C9.4498 0.941742 8.38742 0.5 7.26041 0.5H4.75085C4.75085 0.5 4.75085 0.5 4.75076 0.5C3.62384 0.5 2.56146 0.941742 1.75946 1.74374C0.957367 2.54584 0.515625 3.60831 0.515625 4.73532V6.70792C0.515625 7.58069 0.78186 8.42032 1.28558 9.13599C1.72998 9.76733 2.32764 10.2604 3.02444 10.5732V11.7062C3.02444 12.2921 3.35248 12.4999 3.63336 12.5C3.83405 12.5 4.03482 12.4009 4.23019 12.2057L5.49243 10.9432H7.2605C8.38751 10.9432 9.44989 10.5015 10.252 9.6994C11.0541 8.89731 11.4958 7.83493 11.4958 6.70792L11.4957 4.73541ZM8.27197 8.07864L7.33997 9.01056C7.09644 9.25409 6.77179 9.38803 6.42572 9.38803C6.07965 9.38803 5.755 9.254 5.51147 9.01056L2.58252 6.08151C2.07852 5.57733 2.07852 4.75711 2.58252 4.25302L3.51453 3.32111C3.58044 3.2551 3.6698 3.21811 3.76309 3.21811C3.85629 3.21811 3.94574 3.2551 4.01166 3.32111L5.34302 4.65247C5.40894 4.71838 5.44592 4.80783 5.44592 4.90103C5.44592 4.99423 5.40894 5.08368 5.34293 5.1496L5.05902 5.4335L6.15948 6.53397L6.44348 6.24997C6.58081 6.11273 6.80338 6.11273 6.94061 6.25006L8.27197 7.58142C8.33798 7.64734 8.37497 7.73679 8.37497 7.82999C8.37497 7.92328 8.33798 8.01273 8.27197 8.07864ZM5.73944 3.91299C5.73944 3.7189 5.89682 3.56143 6.091 3.56143C7.30911 3.56143 8.30017 4.5524 8.30017 5.77042C8.30017 5.9646 8.14279 6.12198 7.94861 6.12198C7.75452 6.12198 7.59705 5.9646 7.59705 5.77042C7.59705 4.94012 6.92148 4.26456 6.091 4.26456C5.89682 4.26456 5.73944 4.10718 5.73944 3.91299ZM9.45474 6.12216C9.26056 6.12216 9.10318 5.96469 9.10318 5.7706C9.10327 4.96594 8.78989 4.20953 8.22098 3.64053C7.65198 3.07162 6.89557 2.75824 6.09091 2.75824C5.89682 2.75824 5.73935 2.60086 5.73935 2.40668C5.73935 2.21259 5.89682 2.05511 6.09091 2.05511C7.08334 2.05511 8.01636 2.44165 8.71811 3.1434C9.41995 3.84515 9.8064 4.77817 9.8063 5.7706C9.8063 5.96469 9.64893 6.12216 9.45474 6.12216Z" fill="#5D6C7B"/>
</g>
<defs>
<clipPath id="clip0_1_15970">
<rect fill="white" transform="translate(0 0.5)"/>
</clipPath>
</defs>
</symbol>
<symbol viewBox="0 0 13 13" fill="none" xmlns="http://www.w3.org/2000/svg" id="whatsup">
<g clip-path="url(#clip0_1_15973)">
<path d="M6.49685 0.503787C3.18509 0.50449 0.500956 3.18978 0.501659 6.50153C0.501893 7.64828 0.830971 8.7709 1.44982 9.73633L0.516884 12.1569C0.467202 12.2856 0.531289 12.4303 0.660026 12.48C0.688813 12.4911 0.719381 12.4968 0.75023 12.4967C0.778854 12.4969 0.807267 12.492 0.834181 12.4822L3.33271 11.5902C6.14383 13.341 9.842 12.4815 11.5928 9.67033C13.3436 6.85918 12.484 3.16104 9.67286 1.41026C8.71994 0.81675 7.61952 0.502686 6.49685 0.503787Z" fill="#5D6C7B"/>
<path d="M9.35557 7.52445C9.35557 7.52445 8.74344 7.22462 8.36016 7.02475C7.92642 6.80138 7.41672 7.21963 7.17686 7.4575C6.80356 7.3141 6.46261 7.09767 6.17396 6.82087C5.89711 6.53227 5.68068 6.19131 5.53732 5.81796C5.77519 5.57761 6.19244 5.06841 5.97008 4.63467C5.77269 4.2509 5.47038 3.63877 5.47038 3.63877C5.42796 3.55458 5.34178 3.50144 5.2475 3.50134H4.74781C4.02008 3.62703 3.49097 4.262 3.49855 5.00046C3.49855 5.78498 4.43749 7.29211 5.07063 7.92572C5.70377 8.55933 7.21087 9.49779 7.99589 9.49779C8.73435 9.50538 9.36932 8.97624 9.49501 8.24854V7.74884C9.49508 7.65356 9.44102 7.56654 9.35557 7.52445Z" fill="#F7F7F7"/>
</g>
<defs>
<clipPath id="clip0_1_15973">
<rect fill="white" transform="translate(0.5 0.5)"/>
</clipPath>
</defs>
</symbol>
<symbol viewBox="0 0 12 13" fill="none" xmlns="http://www.w3.org/2000/svg" id="telegram">
<g clip-path="url(#clip0_1_15976)">
<path d="M4.70847 8.09058L4.50997 10.8826C4.79397 10.8826 4.91697 10.7606 5.06447 10.6141L6.39597 9.34158L9.15497 11.3621C9.66097 11.6441 10.0175 11.4956 10.154 10.8966L11.965 2.41058L11.9655 2.41008C12.126 1.66208 11.695 1.36958 11.202 1.55308L0.556967 5.62858C-0.169533 5.91058 -0.158533 6.31558 0.433467 6.49908L3.15497 7.34558L9.47647 3.39008C9.77397 3.19308 10.0445 3.30208 9.82197 3.49908L4.70847 8.09058Z" fill="#5D6C7B"/>
</g>
<defs>
<clipPath id="clip0_1_15976">
<rect width="12" height="12" fill="white" transform="translate(0 0.5)"/>
</clipPath>
</defs>
</symbol>
<symbol viewBox="0 0 16 16" fill="none" xmlns="http://www.w3.org/2000/svg" id="search">
<path d="M15.9519 14.8499L10.758 9.65596C11.564 8.61396 11.9999 7.33997 11.9999 5.99997C11.9999 4.39598 11.374 2.89199 10.242 1.75799C9.10996 0.623997 7.60197 0 5.99997 0C4.39798 0 2.88999 0.625997 1.75799 1.75799C0.623997 2.88999 0 4.39598 0 5.99997C0 7.60197 0.625997 9.10996 1.75799 10.242C2.88999 11.376 4.39598 11.9999 5.99997 11.9999C7.33997 11.9999 8.61196 11.564 9.65396 10.76L14.8479 15.9519C14.8632 15.9672 14.8812 15.9793 14.9012 15.9875C14.9211 15.9958 14.9424 16 14.9639 16C14.9855 16 15.0068 15.9958 15.0267 15.9875C15.0466 15.9793 15.0647 15.9672 15.0799 15.9519L15.9519 15.0819C15.9672 15.0667 15.9793 15.0486 15.9875 15.0287C15.9958 15.0088 16 14.9875 16 14.9659C16 14.9444 15.9958 14.9231 15.9875 14.9032C15.9793 14.8833 15.9672 14.8652 15.9519 14.8499ZM9.16796 9.16796C8.31996 10.014 7.19597 10.48 5.99997 10.48C4.80398 10.48 3.67998 10.014 2.83199 9.16796C1.98599 8.31996 1.51999 7.19597 1.51999 5.99997C1.51999 4.80398 1.98599 3.67798 2.83199 2.83199C3.67998 1.98599 4.80398 1.51999 5.99997 1.51999C7.19597 1.51999 8.32196 1.98399 9.16796 2.83199C10.014 3.67998 10.48 4.80398 10.48 5.99997C10.48 7.19597 10.014 8.32196 9.16796 9.16796Z" fill="white"/>
</symbol>
<symbol viewBox="0 0 20 20" fill="none" xmlns="http://www.w3.org/2000/svg" id="wish">
<path d="M17.9935 5.51496C17.7329 4.90541 17.357 4.35303 16.887 3.88876C16.4167 3.4231 15.8621 3.05305 15.2535 2.79873C14.6224 2.53397 13.9455 2.39845 13.2622 2.40004C12.3034 2.40004 11.3681 2.66518 10.5552 3.166C10.3607 3.28581 10.176 3.4174 10.001 3.56077C9.82594 3.4174 9.6412 3.28581 9.44673 3.166C8.63386 2.66518 7.69847 2.40004 6.73975 2.40004C6.0494 2.40004 5.38043 2.53359 4.74841 2.79873C4.13779 3.05405 3.58745 3.42132 3.11489 3.88876C2.64428 4.35251 2.26834 4.90501 2.00838 5.51496C1.73807 6.14934 1.6 6.823 1.6 7.51629C1.6 8.17031 1.73224 8.85182 1.99477 9.54512C2.21451 10.1245 2.52955 10.7255 2.9321 11.3324C3.56995 12.2928 4.44699 13.2944 5.536 14.3098C7.34066 15.993 9.1278 17.1557 9.20365 17.2028L9.66453 17.5013C9.86872 17.6329 10.1313 17.6329 10.3354 17.5013L10.7963 17.2028C10.8722 17.1537 12.6574 15.993 14.464 14.3098C15.553 13.2944 16.43 12.2928 17.0679 11.3324C17.4704 10.7255 17.7874 10.1245 18.0052 9.54512C18.2677 8.85182 18.4 8.17031 18.4 7.51629C18.4019 6.823 18.2639 6.14934 17.9935 5.51496ZM10.001 15.9478C10.001 15.9478 3.07795 11.4679 3.07795 7.51629C3.07795 5.51496 4.7173 3.89269 6.73975 3.89269C8.1613 3.89269 9.39422 4.69401 10.001 5.86456C10.6077 4.69401 11.8406 3.89269 13.2622 3.89269C15.2846 3.89269 16.924 5.51496 16.924 7.51629C16.924 11.4679 10.001 15.9478 10.001 15.9478Z" fill="#282739"/>
</symbol>
<symbol viewBox="0 0 20 20" fill="none" xmlns="http://www.w3.org/2000/svg" id="busket">
<g clip-path="url(#clip0_1_16000)">
<path d="M19.1523 7.25427H15.0031L12.6756 1.92486C12.5461 1.62833 12.2007 1.49282 11.9042 1.62239C11.6076 1.75189 11.4722 2.09732 11.6017 2.39388L13.7244 7.25431H6.27561L8.39827 2.39388C8.52776 2.09732 8.39237 1.75193 8.09581 1.62239C7.79929 1.49282 7.45382 1.62825 7.32436 1.92486L4.99686 7.25427H0.847685C0.304911 7.25427 -0.0979012 7.74564 0.0208488 8.26286L2.20581 17.7797C2.29257 18.1575 2.63608 18.4261 3.03265 18.4261H16.9673C17.3639 18.4261 17.7074 18.1575 17.7942 17.7797L19.9791 8.26286C20.0979 7.74568 19.695 7.25427 19.1523 7.25427V7.25427ZM5.1071 9.0513C5.02882 9.0513 4.94925 9.03552 4.87288 9.00216C4.57632 8.87267 4.44089 8.52728 4.57042 8.23068L5.01057 7.22278H6.28933L5.64432 8.69966C5.54819 8.91993 5.33296 9.0513 5.1071 9.0513ZM7.0703 15.3011C7.0703 15.6247 6.80796 15.8871 6.48436 15.8871C6.16077 15.8871 5.89843 15.6247 5.89843 15.3011V11.0043C5.89843 10.6807 6.16077 10.4183 6.48436 10.4183C6.80796 10.4183 7.0703 10.6807 7.0703 11.0043V15.3011ZM10.5859 15.3011C10.5859 15.6247 10.3236 15.8871 9.99999 15.8871C9.6764 15.8871 9.41405 15.6247 9.41405 15.3011V11.0043C9.41405 10.6807 9.6764 10.4183 9.99999 10.4183C10.3236 10.4183 10.5859 10.6807 10.5859 11.0043V15.3011ZM14.1016 15.3011C14.1016 15.6247 13.8392 15.8871 13.5156 15.8871C13.192 15.8871 12.9297 15.6247 12.9297 15.3011V11.0043C12.9297 10.6807 13.192 10.4183 13.5156 10.4183C13.8392 10.4183 14.1016 10.6807 14.1016 11.0043V15.3011ZM15.1271 9.00216C15.0507 9.03552 14.9712 9.0513 14.8929 9.0513C14.667 9.0513 14.4518 8.91997 14.3556 8.6997L13.7106 7.22282H14.9894L15.4295 8.23072C15.5591 8.52728 15.4236 8.87267 15.1271 9.00216Z" fill="#6F73EE"/>
</g>
<defs>
<clipPath id="clip0_1_16000">
<rect width="20" height="20" fill="white"/>
</clipPath>
</defs>
</symbol>
<symbol viewBox="0 0 15 15" fill="none" xmlns="http://www.w3.org/2000/svg" id="adress">
<path d="M11.9468 1.84193C10.7591 0.654143 9.1798 0 7.50008 0C5.82034 0 4.24111 0.654114 3.05327 1.84193C1.86551 3.02969 1.21136 4.60886 1.21136 6.2886C1.21136 7.96834 1.86551 9.54757 3.05327 10.7354L7.18936 14.8713C7.27517 14.9571 7.38764 15 7.50008 15C7.61255 15 7.72502 14.9571 7.8108 14.8713L11.9467 10.7354C13.1345 9.5476 13.7887 7.96837 13.7887 6.28863C13.7887 4.60883 13.1346 3.02966 11.9468 1.84193ZM9.47505 8.26351C8.94753 8.79103 8.24616 9.08157 7.50011 9.08157C6.75406 9.08157 6.05269 8.79106 5.5252 8.26354C4.99765 7.73602 4.70714 7.03465 4.70714 6.2886C4.70714 5.54258 4.99765 4.84121 5.5252 4.31366C6.05269 3.78614 6.75406 3.49563 7.50011 3.49563C8.24616 3.49563 8.94753 3.78614 9.47505 4.31366C10.0026 4.84115 10.2931 5.54252 10.2931 6.28857C10.2931 7.03462 10.0025 7.73602 9.47505 8.26351Z" fill="white"/>
</symbol>
<symbol viewBox="0 0 16 16" fill="none" xmlns="http://www.w3.org/2000/svg" id="scooter">
<g clip-path="url(#clip0_1_14920)">
<path d="M12.9407 10.8467L10.3157 1.86234L12.0813 1.67171C12.4469 1.63109 12.7125 1.30296 12.6719 0.937337C12.6313 0.571712 12.3063 0.302962 11.9375 0.346712L6.84067 0.896712C6.47505 0.937337 6.20942 1.26546 6.25005 1.63109C6.28755 1.97171 6.57505 2.22484 6.91255 2.22484C6.93755 2.22484 6.95942 2.22484 6.98442 2.22171L8.97192 2.00921L11.6469 11.1842C11.1188 11.4936 10.7219 11.9936 10.5469 12.5873H5.45317C5.15942 11.5842 4.22505 10.8467 3.11255 10.8467C1.76567 10.8467 0.675049 11.9248 0.675049 13.253C0.675049 14.5811 1.76567 15.6592 3.11255 15.6592C4.22505 15.6592 5.15942 14.9248 5.45317 13.9186H10.5438C10.8375 14.9217 11.7719 15.6592 12.8844 15.6592C14.2313 15.6592 15.3219 14.5811 15.3219 13.253C15.3219 11.9405 14.2625 10.8748 12.9407 10.8467Z" fill="white"/>
</g>
<defs>
<clipPath id="clip0_1_14920">
<rect width="16" height="16" fill="white"/>
</clipPath>
</defs>
</symbol>
<symbol viewBox="0 0 16 16" fill="white" xmlns="http://www.w3.org/2000/svg" id="energy">
<path d="M12.1998 0H6.19959L3.80035 8.63849H6.20448L4.16032 16H4.88044L11.8393 7.36114H8.31397L12.1998 0Z"/>
</symbol>
<symbol viewBox="0 0 22 22" fill="none" xmlns="http://www.w3.org/2000/svg" id="check">
<path d="M15.0168 7.58398H14.0092C13.79 7.58398 13.5816 7.68926 13.4527 7.86973L10.0754 12.5533L8.54566 10.4307C8.41676 10.2523 8.21051 10.1449 7.98922 10.1449H6.9816C6.84195 10.1449 6.76031 10.3039 6.84195 10.4178L9.51891 14.1303C9.58215 14.2185 9.66552 14.2905 9.7621 14.3401C9.85868 14.3897 9.9657 14.4156 10.0743 14.4156C10.1829 14.4156 10.2899 14.3897 10.3865 14.3401C10.483 14.2905 10.5664 14.2185 10.6297 14.1303L15.1543 7.85684C15.2381 7.74297 15.1564 7.58398 15.0168 7.58398Z" fill="#6F73EE"/>
<path d="M11 1.375C5.68477 1.375 1.375 5.68477 1.375 11C1.375 16.3152 5.68477 20.625 11 20.625C16.3152 20.625 20.625 16.3152 20.625 11C20.625 5.68477 16.3152 1.375 11 1.375ZM11 18.9922C6.58711 18.9922 3.00781 15.4129 3.00781 11C3.00781 6.58711 6.58711 3.00781 11 3.00781C15.4129 3.00781 18.9922 6.58711 18.9922 11C18.9922 15.4129 15.4129 18.9922 11 18.9922Z" fill="#6F73EE"/>
</symbol>
<symbol viewBox="0 0 18 18" fill="none" xmlns="http://www.w3.org/2000/svg" id="battery">
<path d="M16.5 3.75001V2.99999C16.5 2.58655 16.1638 2.25 15.75 2.25H13.5C13.0862 2.25 12.75 2.58655 12.75 2.99999V3.74998H12.5303L12.2198 3.43944C11.9407 3.16002 11.554 2.99999 11.1592 2.99999H6.84081C6.44604 2.99999 6.05932 3.16002 5.78025 3.43944L5.46971 3.74998H5.24999V2.99999C5.24999 2.58655 4.91382 2.25 4.5 2.25H2.25C1.83618 2.25 1.50001 2.58655 1.50001 2.99999V3.74998C0.673102 3.75001 0 4.42273 0 5.24999V14.25C0 15.0773 0.673102 15.75 1.50001 15.75H16.5C17.3269 15.75 18 15.0773 18 14.25V5.24999C18 4.42273 17.3269 3.75001 16.5 3.75001ZM4.12499 7.49999H2.62501C2.41773 7.49999 2.25 7.33226 2.25 7.12498C2.25 6.91773 2.41773 6.75 2.62501 6.75H4.12502C4.3323 6.75 4.50004 6.91773 4.50004 7.12501C4.5 7.33229 4.33227 7.49999 4.12499 7.49999ZM15.375 7.49999H15V7.875C15 8.08228 14.8322 8.25001 14.625 8.25001C14.4177 8.25001 14.25 8.08228 14.25 7.875V7.49999H13.8749C13.6677 7.49999 13.4999 7.33226 13.4999 7.12498C13.4999 6.9177 13.6677 6.74996 13.8749 6.74996H14.25V6.37495C14.25 6.16767 14.4177 5.99994 14.625 5.99994C14.8322 5.99994 15 6.16767 15 6.37495V6.75H15.375C15.5823 6.75 15.75 6.91773 15.75 7.12501C15.75 7.33229 15.5823 7.49999 15.375 7.49999Z" fill="#5D6C7B"/>
</symbol>
<symbol viewBox="0 0 18 18" fill="none" xmlns="http://www.w3.org/2000/svg" id="speed">
<path d="M8.47256 4.5644V1.23605C6.43975 1.35274 4.53344 2.14266 3.01184 3.49874L5.36506 5.85196C6.25065 5.11474 7.32597 4.66917 8.47256 4.5644Z" fill="#5D6C7B"/>
<path d="M4.61919 6.59759L2.266 4.24442C0.908759 5.76559 0.117849 7.67203 0.000427246 9.70533H3.32892C3.43438 8.5585 3.88087 7.48311 4.61919 6.59759Z" fill="#5D6C7B"/>
<path d="M14.671 9.70533H17.9995C17.8821 7.67203 17.0912 5.76559 15.7339 4.24442L13.3807 6.59759C14.1191 7.48307 14.5655 8.5585 14.671 9.70533Z" fill="#5D6C7B"/>
<path d="M14.6704 10.76C14.4959 12.676 13.4442 13.845 13.0266 14.2625C12.8203 14.4688 12.8203 14.8033 13.0266 15.0096L14.6267 16.6097C14.7298 16.7128 14.865 16.7644 15.0002 16.7644C15.1354 16.7644 15.2705 16.7128 15.3737 16.6097C16.9531 15.0305 17.874 12.9698 18 10.76H14.6704Z" fill="#5D6C7B"/>
<path d="M3.27189 13.7858C3.41919 13.5544 3.64215 13.2058 3.90962 12.7933C3.63544 12.2499 3.40358 11.5724 3.32965 10.76H0C0.126035 12.9698 1.04695 15.0305 2.62628 16.6097C2.72943 16.7129 2.8646 16.7644 2.99978 16.7644C3.13495 16.7644 3.27016 16.7128 3.37331 16.6097L3.92119 16.0618C3.76249 15.9854 3.61607 15.8821 3.48785 15.754C2.95952 15.2256 2.87068 14.4163 3.27189 13.7858Z" fill="#5D6C7B"/>
<path d="M9.52734 1.23605V4.5644C10.6739 4.66917 11.7493 5.1147 12.6348 5.85196L14.9881 3.49874C13.4665 2.14263 11.5601 1.35274 9.52734 1.23605Z" fill="#5D6C7B"/>
<path d="M7.82841 9.06992C7.01222 9.8861 4.45108 13.8972 4.16175 14.352C4.02903 14.5605 4.05899 14.8332 4.23375 15.008C4.40851 15.1827 4.68122 15.2127 4.88976 15.08C5.34444 14.7906 9.35564 12.2295 10.1718 11.4133C10.8179 10.7673 10.8179 9.71602 10.1718 9.06995C9.52576 8.42389 8.47448 8.42385 7.82841 9.06992Z" fill="#5D6C7B"/>
</symbol>
<symbol viewBox="0 0 18 18" fill="none" xmlns="http://www.w3.org/2000/svg" id="power">
<path d="M14.2233 0.260732C14.14 0.101188 13.9749 0 13.7948 0H6.72925C6.51557 0 6.32727 0.141421 6.26614 0.346092L3.74218 8.80412C3.69851 8.95043 3.72654 9.10792 3.81776 9.23032C3.90898 9.35277 4.0527 9.42405 4.20529 9.42405H8.16696L6.57097 17.4212C6.52452 17.6538 6.65367 17.8862 6.87586 17.9691C6.93126 17.9898 6.98841 18 7.04477 18C7.21428 18 7.37679 17.9106 7.46487 17.7559L13.689 6.82597C13.7741 6.67634 13.7733 6.49172 13.6868 6.34287C13.6003 6.19402 13.4412 6.10147 13.269 6.10147H10.4664L14.1912 0.760267C14.2942 0.612563 14.3066 0.420397 14.2233 0.260732Z" fill="#5D6C7B"/>
</symbol>
<symbol viewBox="0 0 18 18" fill="none" xmlns="http://www.w3.org/2000/svg" id="timer">
<g clip-path="url(#clip0_701_305)">
<path d="M14.4526 5.35819L15.5303 4.28044L14.4698 3.21956L13.3169 4.3725C12.2636 3.62609 11.0346 3.16607 9.75007 3.0375V1.5H11.2501V0H6.75007V1.5H8.25007V3.0375C6.96557 3.16607 5.7365 3.62609 4.68325 4.3725L3.53031 3.21956L2.46982 4.28044L3.54757 5.35819C2.54155 6.42334 1.86955 7.75982 1.61454 9.20259C1.35953 10.6454 1.53269 12.1312 2.11264 13.4767C2.69258 14.8222 3.6539 15.9683 4.8779 16.7736C6.10189 17.5788 7.53493 18.008 9.00007 18.008C10.4652 18.008 11.8982 17.5788 13.1222 16.7736C14.3462 15.9683 15.3076 14.8222 15.8875 13.4767C16.4674 12.1312 16.6406 10.6454 16.3856 9.20259C16.1306 7.75982 15.4586 6.42334 14.4526 5.35819ZM9.00007 16.5C7.81338 16.5 6.65334 16.1481 5.66664 15.4888C4.67995 14.8295 3.91091 13.8925 3.45679 12.7961C3.00266 11.6997 2.88384 10.4933 3.11535 9.32946C3.34686 8.16557 3.91831 7.09647 4.75742 6.25736C5.59654 5.41824 6.66564 4.8468 7.82952 4.61529C8.99341 4.38378 10.1998 4.5026 11.2962 4.95672C12.3925 5.41085 13.3296 6.17988 13.9889 7.16658C14.6482 8.15327 15.0001 9.31331 15.0001 10.5C14.9983 12.0908 14.3656 13.6158 13.2407 14.7407C12.1159 15.8655 10.5908 16.4982 9.00007 16.5Z" fill="#5D6C7B"/>
<path d="M9 6.00015V10.5002H4.5C4.5 11.3902 4.76392 12.2602 5.25839 13.0002C5.75285 13.7402 6.45566 14.317 7.27792 14.6576C8.10019 14.9982 9.00499 15.0873 9.87791 14.9137C10.7508 14.7401 11.5526 14.3115 12.182 13.6821C12.8113 13.0528 13.2399 12.251 13.4135 11.3781C13.5872 10.5051 13.4981 9.60034 13.1575 8.77808C12.8169 7.95581 12.2401 7.25301 11.5001 6.75854C10.76 6.26407 9.89002 6.00015 9 6.00015Z" fill="#5D6C7B"/>
</g>
<defs>
<clipPath id="clip0_701_305">
<rect width="18" height="18" fill="white"/>
</clipPath>
</defs>
</symbol>
<symbol viewBox="0 0 20 20" fill="none" xmlns="http://www.w3.org/2000/svg" id="cart">
<g clip-path="url(#clip0_701_319)">
<path d="M19.703 7.22908C19.4389 6.89775 19.0427 6.70767 18.6159 6.70767H14.7642L12.6756 1.92513C12.5461 1.62861 12.2007 1.4931 11.9041 1.62267C11.6076 1.75216 11.4721 2.09759 11.6017 2.39415L13.4854 6.70771H6.51443L8.39822 2.39415C8.52771 2.09759 8.39232 1.7522 8.09576 1.62267C7.79924 1.4931 7.45381 1.62853 7.32432 1.92513L5.23568 6.70771H1.38396C0.957168 6.70771 0.560957 6.89775 0.296855 7.22911C0.0375977 7.55443 -0.0580664 7.97263 0.0343946 8.37661L2.09131 17.361C2.23494 17.9883 2.7899 18.4265 3.44088 18.4265H16.559C17.21 18.4265 17.7649 17.9883 17.9086 17.361L19.9655 8.37658C20.0579 7.97259 19.9623 7.55439 19.703 7.22908ZM16.559 17.2545H3.44088C3.34139 17.2545 3.25424 17.1893 3.23365 17.0994L1.17674 8.11509C1.16061 8.04458 1.18768 7.99154 1.2133 7.95947C1.23705 7.92962 1.29084 7.87958 1.38396 7.87958H4.72393L4.57045 8.23103C4.44096 8.52759 4.57635 8.87298 4.87291 9.00251C4.94924 9.03587 5.02877 9.05165 5.10709 9.05165C5.33295 9.05165 5.54818 8.92029 5.64436 8.70009L6.00268 7.87966H13.9973L14.3556 8.70009C14.4518 8.92033 14.667 9.05165 14.8929 9.05165C14.9712 9.05165 15.0507 9.03587 15.1271 9.00251C15.4236 8.87302 15.559 8.52759 15.4295 8.23103L15.276 7.87958H18.616C18.7091 7.87958 18.7629 7.92962 18.7867 7.95947C18.8122 7.99158 18.8394 8.04462 18.8232 8.11505L16.7663 17.0994C16.7457 17.1893 16.6585 17.2545 16.559 17.2545Z" fill="#6F73EE"/>
<path d="M19.703 7.22908C19.4389 6.89775 19.0427 6.70767 18.6159 6.70767H14.7642L12.6756 1.92513C12.5461 1.62861 12.2007 1.4931 11.9041 1.62267C11.6076 1.75216 11.4721 2.09759 11.6017 2.39415L13.4854 6.70771H6.51443L8.39822 2.39415C8.52771 2.09759 8.39232 1.7522 8.09576 1.62267C7.79924 1.4931 7.45381 1.62853 7.32432 1.92513L5.23568 6.70771H1.38396C0.957168 6.70771 0.560957 6.89775 0.296855 7.22911C0.0375977 7.55443 -0.0580664 7.97263 0.0343946 8.37661L2.09131 17.361C2.23494 17.9883 2.7899 18.4265 3.44088 18.4265H16.559C17.21 18.4265 17.7649 17.9883 17.9086 17.361L19.9655 8.37658C20.0579 7.97259 19.9623 7.55439 19.703 7.22908ZM16.559 17.2545H3.44088C3.34139 17.2545 3.25424 17.1893 3.23365 17.0994L1.17674 8.11509C1.16061 8.04458 1.18768 7.99154 1.2133 7.95947C1.23705 7.92962 1.29084 7.87958 1.38396 7.87958H4.72393L4.57045 8.23103C4.44096 8.52759 4.57635 8.87298 4.87291 9.00251C4.94924 9.03587 5.02877 9.05165 5.10709 9.05165C5.33295 9.05165 5.54818 8.92029 5.64436 8.70009L6.00268 7.87966H13.9973L14.3556 8.70009C14.4518 8.92033 14.667 9.05165 14.8929 9.05165C14.9712 9.05165 15.0507 9.03587 15.1271 9.00251C15.4236 8.87302 15.559 8.52759 15.4295 8.23103L15.276 7.87958H18.616C18.7091 7.87958 18.7629 7.92962 18.7867 7.95947C18.8122 7.99158 18.8394 8.04462 18.8232 8.11505L16.7663 17.0994C16.7457 17.1893 16.6585 17.2545 16.559 17.2545Z" stroke="#6F73EE"/>
<path d="M6.48438 10.4188C6.16078 10.4188 5.89844 10.6812 5.89844 11.0048V15.3016C5.89844 15.6252 6.16078 15.8876 6.48438 15.8876C6.80797 15.8876 7.07031 15.6252 7.07031 15.3016V11.0048C7.07031 10.6812 6.80801 10.4188 6.48438 10.4188Z" fill="#6F73EE"/>
<path d="M6.48438 10.4188C6.16078 10.4188 5.89844 10.6812 5.89844 11.0048V15.3016C5.89844 15.6252 6.16078 15.8876 6.48438 15.8876C6.80797 15.8876 7.07031 15.6252 7.07031 15.3016V11.0048C7.07031 10.6812 6.80801 10.4188 6.48438 10.4188Z" stroke="#6F73EE"/>
<path d="M10 10.4188C9.67641 10.4188 9.41406 10.6812 9.41406 11.0048V15.3016C9.41406 15.6252 9.67641 15.8876 10 15.8876C10.3236 15.8876 10.5859 15.6252 10.5859 15.3016V11.0048C10.5859 10.6812 10.3236 10.4188 10 10.4188Z" fill="#6F73EE"/>
<path d="M10 10.4188C9.67641 10.4188 9.41406 10.6812 9.41406 11.0048V15.3016C9.41406 15.6252 9.67641 15.8876 10 15.8876C10.3236 15.8876 10.5859 15.6252 10.5859 15.3016V11.0048C10.5859 10.6812 10.3236 10.4188 10 10.4188Z" stroke="#6F73EE"/>
<path d="M13.5156 10.4188C13.192 10.4188 12.9297 10.6812 12.9297 11.0048V15.3016C12.9297 15.6252 13.192 15.8876 13.5156 15.8876C13.8392 15.8876 14.1016 15.6252 14.1016 15.3016V11.0048C14.1015 10.6812 13.8392 10.4188 13.5156 10.4188Z" fill="#6F73EE"/>
<path d="M13.5156 10.4188C13.192 10.4188 12.9297 10.6812 12.9297 11.0048V15.3016C12.9297 15.6252 13.192 15.8876 13.5156 15.8876C13.8392 15.8876 14.1016 15.6252 14.1016 15.3016V11.0048C14.1015 10.6812 13.8392 10.4188 13.5156 10.4188Z" stroke="#6F73EE"/>
</g>
<defs>
<clipPath id="clip0_701_319">
<rect width="20" height="20" fill="white"/>
</clipPath>
</defs>
</symbol>
<symbol viewBox="0 0 20 20" fill="none" xmlns="http://www.w3.org/2000/svg" id="wish-card">
<path d="M17.9935 5.51493C17.7329 4.90538 17.357 4.353 16.887 3.88873C16.4167 3.42307 15.8621 3.05302 15.2535 2.7987C14.6224 2.53394 13.9455 2.39842 13.2621 2.40001C12.3034 2.40001 11.368 2.66515 10.5552 3.16597C10.3607 3.28578 10.176 3.41737 10.0009 3.56074C9.82592 3.41737 9.64117 3.28578 9.44671 3.16597C8.63384 2.66515 7.69845 2.40001 6.73973 2.40001C6.04937 2.40001 5.38041 2.53356 4.74839 2.7987C4.13777 3.05402 3.58743 3.42129 3.11487 3.88873C2.64426 4.35248 2.26831 4.90498 2.00836 5.51493C1.73805 6.14931 1.59998 6.82296 1.59998 7.51626C1.59998 8.17028 1.73221 8.85179 1.99474 9.54509C2.21449 10.1245 2.52953 10.7255 2.93207 11.3323C3.56992 12.2927 4.44697 13.2944 5.53598 14.3098C7.34063 15.9929 9.12778 17.1556 9.20362 17.2028L9.66451 17.5013C9.8687 17.6329 10.1312 17.6329 10.3354 17.5013L10.7963 17.2028C10.8721 17.1537 12.6574 15.9929 14.4639 14.3098C15.553 13.2944 16.43 12.2927 17.0679 11.3323C17.4704 10.7255 17.7874 10.1245 18.0052 9.54509C18.2677 8.85179 18.4 8.17028 18.4 7.51626C18.4019 6.82296 18.2638 6.14931 17.9935 5.51493ZM10.0009 15.9478C10.0009 15.9478 3.07792 11.4679 3.07792 7.51626C3.07792 5.51493 4.71728 3.89266 6.73973 3.89266C8.16128 3.89266 9.3942 4.69397 10.0009 5.86453C10.6077 4.69397 11.8406 3.89266 13.2621 3.89266C15.2846 3.89266 16.924 5.51493 16.924 7.51626C16.924 11.4679 10.0009 15.9478 10.0009 15.9478Z" fill="#6F73EE"/>
</symbol>
<symbol viewBox="0 0 20 20" fill="none" xmlns="http://www.w3.org/2000/svg" id="balance">
<mask id="path-1-inside-1_701_281" fill="white">
<path d="M19.4141 11.264H18.7766L16.7349 6.32556C17.0208 6.28666 17.2413 6.0422 17.2413 5.74564C17.2413 5.42205 16.979 5.1597 16.6554 5.1597H11.6177C11.3769 4.49091 10.7363 4.01138 9.98559 4.01138C9.23488 4.01138 8.59422 4.49095 8.3534 5.1597H3.34465C3.02105 5.1597 2.75871 5.42205 2.75871 5.74564C2.75871 6.0422 2.97926 6.28666 3.26512 6.32556L1.22344 11.264H0.585938C0.262344 11.264 0 11.5263 0 11.8499C0 14.132 1.85668 15.9887 4.13883 15.9887C6.42098 15.9887 8.27766 14.132 8.27766 11.8499C8.27766 11.5263 8.01531 11.264 7.69172 11.264H7.05418L5.01504 6.33158H8.3534C8.59422 7.00037 9.23484 7.4799 9.98559 7.4799C10.7363 7.4799 11.3769 7.00037 11.6177 6.33158H14.985L12.9459 11.264H12.3083C11.9847 11.264 11.7224 11.5263 11.7224 11.8499C11.7224 14.132 13.5791 15.9887 15.8612 15.9887C18.1434 15.9887 20 14.132 20 11.8499C20 11.5263 19.7377 11.264 19.4141 11.264ZM4.13883 14.8169C2.70332 14.8169 1.5027 13.7922 1.22996 12.4358H7.0477C6.77496 13.7922 5.57434 14.8169 4.13883 14.8169ZM5.78613 11.264H2.49152L4.13883 7.27943L5.78613 11.264ZM9.98555 6.30802C9.67543 6.30802 9.42316 6.05576 9.42316 5.74564C9.42316 5.43552 9.67543 5.18326 9.98555 5.18326C10.2956 5.18326 10.5479 5.43552 10.5479 5.74564C10.5479 6.05576 10.2957 6.30802 9.98555 6.30802ZM15.8612 7.27943L17.5085 11.264H14.2139L15.8612 7.27943ZM15.8612 14.8169C14.4257 14.8169 13.225 13.7922 12.9523 12.4358H18.77C18.4973 13.7922 17.2966 14.8169 15.8612 14.8169Z"/>
</mask>
<path d="M19.4141 11.264H18.7766L16.7349 6.32556C17.0208 6.28666 17.2413 6.0422 17.2413 5.74564C17.2413 5.42205 16.979 5.1597 16.6554 5.1597H11.6177C11.3769 4.49091 10.7363 4.01138 9.98559 4.01138C9.23488 4.01138 8.59422 4.49095 8.3534 5.1597H3.34465C3.02105 5.1597 2.75871 5.42205 2.75871 5.74564C2.75871 6.0422 2.97926 6.28666 3.26512 6.32556L1.22344 11.264H0.585938C0.262344 11.264 0 11.5263 0 11.8499C0 14.132 1.85668 15.9887 4.13883 15.9887C6.42098 15.9887 8.27766 14.132 8.27766 11.8499C8.27766 11.5263 8.01531 11.264 7.69172 11.264H7.05418L5.01504 6.33158H8.3534C8.59422 7.00037 9.23484 7.4799 9.98559 7.4799C10.7363 7.4799 11.3769 7.00037 11.6177 6.33158H14.985L12.9459 11.264H12.3083C11.9847 11.264 11.7224 11.5263 11.7224 11.8499C11.7224 14.132 13.5791 15.9887 15.8612 15.9887C18.1434 15.9887 20 14.132 20 11.8499C20 11.5263 19.7377 11.264 19.4141 11.264ZM4.13883 14.8169C2.70332 14.8169 1.5027 13.7922 1.22996 12.4358H7.0477C6.77496 13.7922 5.57434 14.8169 4.13883 14.8169ZM5.78613 11.264H2.49152L4.13883 7.27943L5.78613 11.264ZM9.98555 6.30802C9.67543 6.30802 9.42316 6.05576 9.42316 5.74564C9.42316 5.43552 9.67543 5.18326 9.98555 5.18326C10.2956 5.18326 10.5479 5.43552 10.5479 5.74564C10.5479 6.05576 10.2957 6.30802 9.98555 6.30802ZM15.8612 7.27943L17.5085 11.264H14.2139L15.8612 7.27943ZM15.8612 14.8169C14.4257 14.8169 13.225 13.7922 12.9523 12.4358H18.77C18.4973 13.7922 17.2966 14.8169 15.8612 14.8169Z" fill="#5D6C7B"/>
<path d="M18.7766 11.264L15.08 12.7922L16.1019 15.264H18.7766V11.264ZM16.7349 6.32556L16.1956 2.36209L11.0571 3.06136L13.0384 7.8538L16.7349 6.32556ZM11.6177 5.1597L7.85429 6.51486L8.80665 9.1597H11.6177V5.1597ZM8.3534 5.1597V9.1597H11.1644L12.1168 6.51493L8.3534 5.1597ZM3.26512 6.32556L6.96166 7.85382L8.94296 3.06146L3.80455 2.3621L3.26512 6.32556ZM1.22344 11.264V15.264H3.89809L4.91998 12.7922L1.22344 11.264ZM7.05418 11.264L3.35762 12.7922L4.3795 15.264H7.05418V11.264ZM5.01504 6.33158V2.33158H-0.966991L1.31848 7.85981L5.01504 6.33158ZM8.3534 6.33158L12.1168 4.97642L11.1645 2.33158H8.3534V6.33158ZM11.6177 6.33158V2.33158H8.80665L7.85429 4.97642L11.6177 6.33158ZM14.985 6.33158L18.6816 7.8598L20.967 2.33158H14.985V6.33158ZM12.9459 11.264V15.264H15.6205L16.6424 12.7922L12.9459 11.264ZM1.22996 12.4358V8.43584H-3.65441L-2.69155 13.2244L1.22996 12.4358ZM7.0477 12.4358L10.9692 13.2244L11.9321 8.43584H7.0477V12.4358ZM5.78613 11.264V15.264H11.7682L9.48268 9.73572L5.78613 11.264ZM2.49152 11.264L-1.20502 9.73572L-3.49054 15.264H2.49152V11.264ZM4.13883 7.27943L7.83538 5.75118L4.13883 -3.19009L0.44228 5.75118L4.13883 7.27943ZM15.8612 7.27943L19.5577 5.75118L15.8612 -3.19009L12.1646 5.75118L15.8612 7.27943ZM17.5085 11.264V15.264H23.4905L21.205 9.73572L17.5085 11.264ZM14.2139 11.264L10.5173 9.73572L8.2318 15.264H14.2139V11.264ZM12.9523 12.4358V8.43584H8.06793L9.0308 13.2244L12.9523 12.4358ZM18.77 12.4358L22.6915 13.2244L23.6544 8.43584H18.77V12.4358ZM19.4141 7.26396H18.7766V15.264H19.4141V7.26396ZM22.4731 9.73573L20.4315 4.79733L13.0384 7.8538L15.08 12.7922L22.4731 9.73573ZM17.2743 10.289C19.5083 9.98502 21.2413 8.07737 21.2413 5.74564H13.2413C13.2413 4.00703 14.5334 2.58829 16.1956 2.36209L17.2743 10.289ZM21.2413 5.74564C21.2413 3.21291 19.1881 1.1597 16.6554 1.1597V9.1597C14.7698 9.1597 13.2413 7.63119 13.2413 5.74564H21.2413ZM16.6554 1.1597H11.6177V9.1597H16.6554V1.1597ZM15.3812 3.80455C14.5889 1.60417 12.4809 0.0113831 9.98559 0.0113831V8.01138C8.99163 8.01138 8.16497 7.37766 7.85429 6.51486L15.3812 3.80455ZM9.98559 0.0113831C7.49022 0.0113831 5.38231 1.6042 4.58997 3.80448L12.1168 6.51493C11.8061 7.37771 10.9795 8.01138 9.98559 8.01138V0.0113831ZM8.3534 1.1597H3.34465V9.1597H8.3534V1.1597ZM3.34465 1.1597C0.811916 1.1597 -1.24129 3.21291 -1.24129 5.74564H6.75871C6.75871 7.63119 5.23019 9.1597 3.34465 9.1597V1.1597ZM-1.24129 5.74564C-1.24129 8.07761 0.492035 9.98502 2.72568 10.289L3.80455 2.3621C5.46648 2.5883 6.75871 4.0068 6.75871 5.74564H-1.24129ZM-0.431425 4.7973L-2.4731 9.7357L4.91998 12.7922L6.96166 7.85382L-0.431425 4.7973ZM1.22344 7.26396H0.585938V15.264H1.22344V7.26396ZM0.585938 7.26396C-1.9468 7.26396 -4 9.31717 -4 11.8499H4C4 13.7354 2.47148 15.264 0.585938 15.264V7.26396ZM-4 11.8499C-4 16.3412 -0.352459 19.9887 4.13883 19.9887V11.9887C4.11514 11.9887 4.10112 11.9847 4.08983 11.9799C4.07582 11.974 4.05865 11.9633 4.04204 11.9467C4.02542 11.9301 4.01476 11.9129 4.00882 11.8989C4.00404 11.8876 4 11.8736 4 11.8499H-4ZM4.13883 19.9887C8.63012 19.9887 12.2777 16.3412 12.2777 11.8499H4.27766C4.27766 11.8736 4.27362 11.8876 4.26883 11.8989C4.2629 11.9129 4.25223 11.9301 4.23562 11.9467C4.21901 11.9633 4.20183 11.974 4.18783 11.9799C4.17654 11.9847 4.16251 11.9887 4.13883 11.9887V19.9887ZM12.2777 11.8499C12.2777 9.31717 10.2245 7.26396 7.69172 7.26396V15.264C5.80617 15.264 4.27766 13.7354 4.27766 11.8499H12.2777ZM7.69172 7.26396H7.05418V15.264H7.69172V7.26396ZM10.7507 9.73573L8.71159 4.80335L1.31848 7.85981L3.35762 12.7922L10.7507 9.73573ZM5.01504 10.3316H8.3534V2.33158H5.01504V10.3316ZM4.58995 7.68674C5.38229 9.88717 7.49024 11.4799 9.98559 11.4799V3.4799C10.9795 3.4799 11.8061 4.11357 12.1168 4.97642L4.58995 7.68674ZM9.98559 11.4799C12.4809 11.4799 14.5889 9.88712 15.3812 7.68674L7.85429 4.97642C8.16497 4.11362 8.99163 3.4799 9.98559 3.4799V11.4799ZM11.6177 10.3316H14.985V2.33158H11.6177V10.3316ZM11.2884 4.80335L9.2493 9.73573L16.6424 12.7922L18.6816 7.8598L11.2884 4.80335ZM12.9459 7.26396H12.3083V15.264H12.9459V7.26396ZM12.3083 7.26396C9.77559 7.26396 7.72238 9.31717 7.72238 11.8499H15.7224C15.7224 13.7354 14.1939 15.264 12.3083 15.264V7.26396ZM7.72238 11.8499C7.72238 16.3412 11.3699 19.9887 15.8612 19.9887V11.9887C15.8375 11.9887 15.8235 11.9847 15.8122 11.9799C15.7982 11.974 15.781 11.9633 15.7644 11.9467C15.7478 11.9301 15.7371 11.9129 15.7312 11.8989C15.7264 11.8876 15.7224 11.8736 15.7224 11.8499H7.72238ZM15.8612 19.9887C20.3525 19.9887 24 16.3411 24 11.8499H16C16 11.8736 15.996 11.8876 15.9912 11.8989C15.9852 11.9129 15.9746 11.9301 15.958 11.9467C15.9414 11.9633 15.9242 11.974 15.9102 11.9799C15.8989 11.9847 15.8849 11.9887 15.8612 11.9887V19.9887ZM24 11.8499C24 9.31717 21.9468 7.26396 19.4141 7.26396V15.264C17.5285 15.264 16 13.7354 16 11.8499H24ZM4.13883 10.8169C4.64856 10.8169 5.05659 11.1755 5.15147 11.6473L-2.69155 13.2244C-2.0512 16.4089 0.758084 18.8169 4.13883 18.8169V10.8169ZM1.22996 16.4358H7.0477V8.43584H1.22996V16.4358ZM3.12619 11.6473C3.22107 11.1755 3.6291 10.8169 4.13883 10.8169V18.8169C7.51957 18.8169 10.3289 16.4089 10.9692 13.2244L3.12619 11.6473ZM5.78613 7.26396H2.49152V15.264H5.78613V7.26396ZM6.18807 12.7922L7.83538 8.80768L0.44228 5.75118L-1.20502 9.73572L6.18807 12.7922ZM0.44228 8.80767L2.08958 12.7922L9.48268 9.73572L7.83538 5.75118L0.44228 8.80767ZM9.98555 2.30802C11.8846 2.30802 13.4232 3.84662 13.4232 5.74564H5.42316C5.42316 8.2649 7.46629 10.308 9.98555 10.308V2.30802ZM13.4232 5.74564C13.4232 7.64466 11.8846 9.18326 9.98555 9.18326V1.18326C7.46629 1.18326 5.42316 3.22639 5.42316 5.74564H13.4232ZM9.98555 9.18326C8.08667 9.18326 6.54793 7.64484 6.54793 5.74564H14.5479C14.5479 3.22621 12.5046 1.18326 9.98555 1.18326V9.18326ZM6.54793 5.74564C6.54793 3.84662 8.08653 2.30802 9.98555 2.30802V10.308C12.5048 10.308 14.5479 8.2649 14.5479 5.74564H6.54793ZM12.1646 8.80767L13.8119 12.7922L21.205 9.73572L19.5577 5.75118L12.1646 8.80767ZM17.5085 7.26396H14.2139V15.264H17.5085V7.26396ZM17.9104 12.7922L19.5577 8.80767L12.1646 5.75118L10.5173 9.73572L17.9104 12.7922ZM15.8612 10.8169C16.3709 10.8169 16.7789 11.1755 16.8738 11.6473L9.0308 13.2244C9.67114 16.4089 12.4804 18.8169 15.8612 18.8169V10.8169ZM12.9523 16.4358H18.77V8.43584H12.9523V16.4358ZM14.8485 11.6473C14.9434 11.1754 15.3514 10.8169 15.8612 10.8169V18.8169C19.2418 18.8169 22.0512 16.409 22.6915 13.2244L14.8485 11.6473Z" fill="#5D6C7B" mask="url(#path-1-inside-1_701_281)"/>
</symbol>
<symbol width="11" height="9" viewBox="0 0 11 9" fill="none" xmlns="http://www.w3.org/2000/svg" id="check">
<path d="M1.91308 4.03516H1.91326C1.99256 4.03525 2.07081 4.05331 2.14213 4.08798C2.21341 4.12262 2.27591 4.17295 2.32497 4.2352L1.91308 4.03516ZM1.91308 4.03516H1.09394C0.890308 4.03516 0.776602 4.26975 0.902321 4.4292L0.902371 4.42927L4.11214 8.49567L4.11218 8.49573C4.32247 8.76188 4.72568 8.76114 4.93667 8.49617L4.93708 8.49566L10.6597 1.24398C10.6598 1.24378 10.66 1.24358 10.6602 1.24338C10.7884 1.08295 10.6699 0.85 10.4689 0.85H9.6498C9.48941 0.85 9.33668 0.9235 9.2376 1.05044C9.23751 1.05055 9.23742 1.05066 9.23734 1.05077L4.52403 7.02157M1.91308 4.03516L4.52403 7.02157M4.52403 7.02157L2.32506 4.23531L4.52403 7.02157Z" fill="#6F73EE" stroke="#6F73EE" stroke-width="0.3"/>
</symbol>
<symbol viewBox="0 0 20 20" fill="none" xmlns="http://www.w3.org/2000/svg" id="vk">
<g clip-path="url(#clip0_1_16085)">
<path d="M16.5958 10.8567C16.2725 10.4484 16.365 10.2667 16.5958 9.90175C16.6 9.89758 19.2692 6.20925 19.5442 4.95841L19.5458 4.95758C19.6825 4.50175 19.5458 4.16675 18.885 4.16675H16.6983C16.1417 4.16675 15.885 4.45425 15.7475 4.77591C15.7475 4.77591 14.6342 7.44092 13.0592 9.16842C12.5508 9.66758 12.3158 9.82758 12.0383 9.82758C11.9017 9.82758 11.6892 9.66758 11.6892 9.21175V4.95758C11.6892 4.41091 11.5333 4.16675 11.0725 4.16675H7.63417C7.285 4.16675 7.0775 4.42175 7.0775 4.65925C7.0775 5.17758 7.865 5.29675 7.94667 6.75508V9.91925C7.94667 10.6126 7.82083 10.7401 7.54167 10.7401C6.79833 10.7401 4.99417 8.06425 3.925 5.00175C3.70917 4.40758 3.49833 4.16758 2.9375 4.16758H0.75C0.125833 4.16758 0 4.45508 0 4.77675C0 5.34508 0.743333 8.17092 3.45667 11.9042C5.265 14.4526 7.81167 15.8334 10.1283 15.8334C11.5208 15.8334 11.6908 15.5267 11.6908 14.9992C11.6908 12.5642 11.565 12.3342 12.2625 12.3342C12.5858 12.3342 13.1425 12.4942 14.4425 13.7234C15.9283 15.1809 16.1725 15.8334 17.0042 15.8334H19.1908C19.8142 15.8334 20.13 15.5267 19.9483 14.9217C19.5325 13.6492 16.7225 11.0317 16.5958 10.8567Z" fill="#4B729F"/>
</g>
<defs>
<clipPath id="clip0_1_16085">
<rect width="20" height="20" fill="white"/>
</clipPath>
</defs>
</symbol>
<symbol width="20" height="20" viewBox="0 0 20 20" fill="none" xmlns="http://www.w3.org/2000/svg" id="youtube">
<g clip-path="url(#clip0_1_16099)">
<path d="M0.435077 14.895C0.843411 16.3434 2.09258 16.6084 2.17591 16.6592C4.23174 17.2192 15.7551 17.2209 17.8417 16.6592C19.2709 16.2459 19.5334 14.9784 19.5826 14.895C20.1267 12 20.1626 8.22587 19.5576 4.94087L19.5826 5.10421C19.1742 3.65587 17.9251 3.39087 17.8417 3.34004C15.8134 2.78921 4.26008 2.76837 2.17591 3.34004C0.746744 3.75421 0.484244 5.02087 0.435077 5.10421C-0.147423 8.14671 -0.17659 11.6375 0.435077 14.895ZM8.00674 13.0425V6.96504L13.2284 10.0084L8.00674 13.0425Z" fill="#E53935"/>
</g>
<defs>
<clipPath id="clip0_1_16099">
<rect width="20" height="20" fill="white"/>
</clipPath>
</defs>
</symbol>
<symbol width="20" height="20" viewBox="0 0 20 20" fill="none" xmlns="http://www.w3.org/2000/svg" id="tg">
<g clip-path="url(#clip0_1_16105)">
<path d="M7.84737 12.6509L7.51654 17.3042C7.98987 17.3042 8.19487 17.1009 8.44071 16.8567L10.6599 14.7359L15.2582 18.1034C16.1015 18.5734 16.6957 18.3259 16.9232 17.3276L19.9415 3.18422L19.9424 3.18339C20.2099 1.93672 19.4915 1.44922 18.6699 1.75505L0.928205 8.54755C-0.282628 9.01755 -0.264295 9.69255 0.722372 9.99839L5.25821 11.4092L15.794 4.81672C16.2899 4.48839 16.7407 4.67005 16.3699 4.99839L7.84737 12.6509Z" fill="#039BE5"/>
</g>
<defs>
<clipPath id="clip0_1_16105">
<rect width="20" height="20" fill="white"/>
</clipPath>
</defs>
</symbol>

</svg>